<?xml version="1.0" encoding="utf-8"?>
<!-- Generator: Adobe Illustrator 16.0.0, SVG Export Plug-In . SVG Version: 6.00 Build 0)  -->
<!DOCTYPE svg PUBLIC "-//W3C//DTD SVG 1.1//EN" "http://www.w3.org/Graphics/SVG/1.1/DTD/svg11.dtd">
<svg version="1.1" id="Слой_1" xmlns="http://www.w3.org/2000/svg" xmlns:xlink="http://www.w3.org/1999/xlink" x="0px" y="0px"
	 width="22.56px" height="8.496px" viewBox="0 0 22.56 8.496" enable-background="new 0 0 22.56 8.496" xml:space="preserve">
<g>
	<path d="M6.444,2.616c0,0.496-0.092,0.914-0.276,1.254C5.984,4.21,5.736,4.484,5.424,4.692C5.112,4.9,4.752,5.052,4.344,5.148
		C3.936,5.244,3.512,5.292,3.072,5.292h-1.02v3.204H0V0h3.12c0.464,0,0.898,0.046,1.302,0.138s0.756,0.24,1.056,0.444
		s0.536,0.472,0.708,0.804C6.358,1.718,6.444,2.128,6.444,2.616z M4.392,2.628c0-0.2-0.04-0.364-0.12-0.492s-0.188-0.228-0.324-0.3
		c-0.136-0.072-0.29-0.12-0.462-0.144c-0.172-0.024-0.35-0.036-0.534-0.036h-0.9V3.66h0.864c0.192,0,0.376-0.016,0.552-0.048
		C3.644,3.58,3.802,3.524,3.942,3.444c0.14-0.08,0.25-0.186,0.33-0.318C4.352,2.994,4.392,2.828,4.392,2.628z"/>
	<path d="M15.612,4.224c0,0.744-0.138,1.386-0.414,1.926s-0.64,0.984-1.092,1.332c-0.452,0.348-0.962,0.604-1.53,0.768
		c-0.568,0.164-1.144,0.246-1.728,0.246H7.68V0h3.072c0.6,0,1.192,0.07,1.776,0.21c0.584,0.14,1.104,0.372,1.56,0.696
		c0.456,0.324,0.824,0.758,1.104,1.302C15.472,2.752,15.612,3.424,15.612,4.224z M13.476,4.224c0-0.48-0.078-0.878-0.234-1.194
		c-0.156-0.316-0.364-0.568-0.624-0.756c-0.26-0.188-0.556-0.322-0.888-0.402s-0.674-0.12-1.026-0.12h-1.02V6.72h0.972
		c0.368,0,0.722-0.042,1.062-0.126c0.34-0.084,0.64-0.222,0.9-0.414c0.26-0.192,0.468-0.448,0.624-0.768
		C13.398,5.092,13.476,4.696,13.476,4.224z"/>
	<path d="M18.996,1.752v1.752h3.288v1.692h-3.288v3.3h-2.028V0h5.592v1.752H18.996z"/>
</g>
</svg>
