<?xml version="1.0" encoding="UTF-8"?><!DOCTYPE svg PUBLIC "-//W3C//DTD SVG 1.1//EN" "http://www.w3.org/Graphics/SVG/1.1/DTD/svg11.dtd"><svg xmlns="http://www.w3.org/2000/svg" xmlns:xlink="http://www.w3.org/1999/xlink" xmlns:sketch="http://www.bohemiancoding.com/sketch/ns"><symbol id="icon-availability" viewBox="0 0 16 16">
<path fill-rule="evenodd" d="M15.000,15.999 L1.000,15.999 C0.448,15.999 -0.000,15.551 -0.000,14.999 C-0.000,14.724 0.112,14.473 0.293,14.292 L0.293,14.292 L14.293,0.293 L14.293,0.293 C14.474,0.111 14.724,-0.001 15.000,-0.001 C15.552,-0.001 16.000,0.447 16.000,1.000 L16.000,14.999 C16.000,15.551 15.552,15.999 15.000,15.999 ZM14.000,3.413 L3.414,14.000 L14.000,14.000 L14.000,3.413 Z"/>
</symbol><symbol id="icon-briefcase" viewBox="0 0 16 16">
<path fill-rule="evenodd" d="M14.000,15.999 L2.000,15.999 C0.895,15.999 -0.000,15.104 -0.000,14.000 L-0.000,5.000 C-0.000,3.895 0.895,2.999 2.000,2.999 L4.000,2.999 L4.000,1.999 C4.000,0.895 4.895,-0.000 6.000,-0.000 L10.000,-0.000 C11.104,-0.000 12.000,0.895 12.000,1.999 L12.000,2.999 L14.000,2.999 C15.104,2.999 16.000,3.895 16.000,5.000 L16.000,14.000 C16.000,15.104 15.104,15.999 14.000,15.999 ZM9.500,1.999 L6.500,1.999 C6.224,1.999 6.000,2.223 6.000,2.499 C6.000,2.776 6.224,2.999 6.500,2.999 L9.500,2.999 C9.776,2.999 10.000,2.776 10.000,2.499 C10.000,2.223 9.776,1.999 9.500,1.999 ZM13.000,5.000 L3.000,5.000 C2.447,5.000 2.000,5.447 2.000,5.999 C2.000,6.552 2.447,7.000 3.000,7.000 L13.000,7.000 C13.552,7.000 14.000,6.552 14.000,5.999 C14.000,5.447 13.552,5.000 13.000,5.000 ZM14.000,9.999 C14.000,9.448 13.552,9.000 13.000,9.000 L12.000,9.000 L12.000,9.999 C12.000,10.551 11.552,11.000 11.000,11.000 C10.447,11.000 10.000,10.551 10.000,9.999 L10.000,9.000 L6.000,9.000 L6.000,9.999 C6.000,10.551 5.552,11.000 5.000,11.000 C4.448,11.000 4.000,10.551 4.000,9.999 L4.000,9.000 L3.000,9.000 C2.447,9.000 2.000,9.448 2.000,9.999 L2.000,13.000 C2.000,13.551 2.447,14.000 3.000,14.000 L13.000,14.000 C13.552,14.000 14.000,13.551 14.000,13.000 L14.000,9.999 Z"/>
</symbol><symbol id="icon-close" viewBox="0 0 18 18">
    <path d="M9 7.615L16.615 0 18 1.385 10.385 9 18 16.615 16.615 18 9 10.385 1.385 18 0 16.615 7.615 9 0 1.385 1.385 0z" fill-rule="evenodd"/>
</symbol><symbol id="icon-disconnect" viewBox="0 0 16 16">
<path fill-rule="evenodd" d="M15.707,1.706 L15.707,1.706 L14.707,2.707 L13.301,4.112 C13.738,4.806 14.000,5.620 14.000,6.500 C14.000,7.612 13.581,8.617 12.912,9.403 C12.756,9.753 12.408,10.000 12.000,10.000 C11.724,10.000 11.474,9.887 11.293,9.707 L11.293,9.707 L11.000,9.414 L9.707,10.706 L9.707,10.706 C9.526,10.888 9.276,11.000 9.000,11.000 C8.448,11.000 8.000,10.552 8.000,10.000 C8.000,9.723 8.112,9.473 8.293,9.292 L8.293,9.292 L9.586,7.999 L8.000,6.414 L6.707,7.707 L6.707,7.707 C6.526,7.888 6.276,7.999 6.000,7.999 C5.448,7.999 5.000,7.552 5.000,7.000 C5.000,6.723 5.112,6.473 5.293,6.293 L5.293,6.293 L6.586,4.999 L6.293,4.707 L6.293,4.707 C6.112,4.526 6.000,4.275 6.000,4.000 C6.000,3.591 6.246,3.243 6.597,3.088 C7.382,2.419 8.387,1.999 9.500,1.999 C10.380,1.999 11.194,2.262 11.887,2.698 L13.293,1.292 L14.293,0.292 L14.293,0.292 C14.474,0.112 14.724,-0.000 15.000,-0.000 C15.552,-0.000 16.000,0.447 16.000,0.999 C16.000,1.276 15.888,1.526 15.707,1.706 ZM7.707,13.293 C7.888,13.474 8.000,13.723 8.000,13.999 C8.000,14.155 7.955,14.296 7.892,14.427 C7.741,14.602 7.579,14.762 7.403,14.911 C7.210,15.076 7.003,15.225 6.785,15.356 C6.770,15.365 6.755,15.372 6.741,15.380 C6.538,15.500 6.326,15.604 6.105,15.691 C6.025,15.722 5.940,15.742 5.858,15.768 C5.689,15.823 5.521,15.880 5.345,15.914 C5.071,15.966 4.789,16.000 4.500,16.000 C4.230,16.000 3.969,15.965 3.712,15.920 C3.615,15.902 3.520,15.880 3.425,15.856 C3.277,15.820 3.134,15.772 2.992,15.721 C2.684,15.609 2.387,15.474 2.113,15.302 L2.113,15.302 L1.707,15.706 L1.691,15.691 C1.515,15.876 1.278,16.000 1.000,16.000 C0.448,16.000 -0.000,15.552 -0.000,14.999 C-0.000,14.721 0.123,14.484 0.309,14.309 L0.293,14.292 L0.698,13.887 L0.698,13.887 C0.526,13.613 0.390,13.316 0.278,13.008 C0.227,12.865 0.180,12.722 0.143,12.574 C0.120,12.480 0.097,12.384 0.080,12.288 C0.034,12.030 -0.000,11.769 -0.000,11.499 C-0.000,11.210 0.033,10.928 0.085,10.655 C0.120,10.478 0.176,10.310 0.231,10.142 C0.258,10.059 0.277,9.975 0.308,9.895 C0.395,9.673 0.500,9.461 0.619,9.258 C0.628,9.244 0.634,9.229 0.643,9.215 C0.775,8.997 0.923,8.790 1.088,8.596 C1.237,8.421 1.398,8.259 1.572,8.108 C1.703,8.044 1.844,7.999 2.000,7.999 C2.276,7.999 2.526,8.112 2.707,8.292 L2.707,8.292 L7.707,13.293 L7.707,13.293 Z"/>
</symbol><symbol id="icon-facebook" viewBox="0 0 10 19">
    <!-- Generator: Sketch 3.3.3 (12072) - http://www.bohemiancoding.com/sketch -->
    <title>facebook</title>
    <desc>Created with Sketch.</desc>
    
    <g id="Page-1" stroke-width="1" fill-rule="evenodd" sketch:type="MSPage">
        <path d="M9.76616526,0.156928571 L9.76616526,3.10335714 L8.01393311,3.10335714 C7.37405216,3.10335714 6.94250454,3.23728571 6.71929026,3.50514286 C6.49607597,3.773 6.38446883,4.17478571 6.38446883,4.7105 L6.38446883,6.819875 L9.65455811,6.819875 L9.21929026,10.1234464 L6.38446883,10.1234464 L6.38446883,18.5944286 L2.96929026,18.5944286 L2.96929026,10.1234464 L0.123308113,10.1234464 L0.123308113,6.819875 L2.96929026,6.819875 L2.96929026,4.38683929 C2.96929026,3.00291071 3.35619502,1.92962202 4.13000454,1.16697321 C4.90381407,0.404324405 5.93432002,0.023 7.2215224,0.023 C8.3152724,0.023 9.16348668,0.0676428571 9.76616526,0.156928571 L9.76616526,0.156928571 Z" id="facebook" sketch:type="MSShapeGroup"/>
    </g>
</symbol><symbol id="icon-fb" viewBox="0 0 512 512">


<path d="M348.49,35.511H163.512c-70.692,0-128,57.307-128,128v184.978c0,70.693,57.308,128,128,128h97.091  v-163.96h-55.542v-69.428h55.542v-41.657c0-57.194,32.284-97.199,83.313-97.199c24.438,0,41.656,0,55.542,0v69.428h-27.771  c-27.743,0-41.657,13.885-41.657,41.657v27.771h69.428l-13.886,69.428h-55.542v163.96h18.459c70.693,0,128-57.307,128-128V163.511  C476.49,92.819,419.183,35.511,348.49,35.511z"/></symbol><symbol id="icon-graph" viewBox="0 0 16 12">
<path fill-rule="evenodd" d="M15.000,5.000 C14.447,5.000 14.000,4.552 14.000,3.999 L14.000,3.414 L9.707,7.706 L9.707,7.706 C9.526,7.888 9.276,8.000 9.000,8.000 C8.724,8.000 8.474,7.888 8.293,7.706 L8.293,7.706 L7.000,6.414 L4.707,8.707 L4.707,8.707 C4.526,8.888 4.276,9.000 4.000,9.000 C3.448,9.000 3.000,8.552 3.000,8.000 C3.000,7.723 3.112,7.473 3.293,7.293 L3.293,7.293 L6.293,4.292 L6.293,4.292 C6.473,4.111 6.724,3.999 7.000,3.999 C7.276,3.999 7.526,4.111 7.707,4.292 L7.707,4.292 L9.000,5.585 L12.586,1.999 L12.000,1.999 C11.448,1.999 11.000,1.552 11.000,1.000 C11.000,0.448 11.448,-0.000 12.000,-0.000 L15.000,-0.000 C15.552,-0.000 16.000,0.448 16.000,1.000 L16.000,3.999 C16.000,4.552 15.552,5.000 15.000,5.000 ZM15.000,10.000 C15.552,10.000 16.000,10.447 16.000,10.999 C16.000,11.551 15.552,11.999 15.000,11.999 L1.000,11.999 C0.447,11.999 -0.000,11.551 -0.000,10.999 L-0.000,1.000 C-0.000,0.448 0.447,-0.000 1.000,-0.000 C1.552,-0.000 2.000,0.448 2.000,1.000 L2.000,10.000 L15.000,10.000 Z"/>
</symbol><symbol id="icon-lock" viewBox="0 0 10 12">
<path fill-rule="evenodd" d="M2.500,4.788 L7.500,4.789 L7.500,2.669 C7.500,1.810 6.378,1.108 5.000,1.108 C3.609,1.108 2.500,1.802 2.500,2.669 L2.500,4.788 ZM1.250,4.800 L1.246,4.800 C0.566,4.800 -0.000,5.332 -0.000,5.989 L-0.000,10.811 C-0.000,11.459 0.558,12.001 1.246,12.001 L8.754,12.001 C9.433,12.001 10.000,11.467 10.000,10.811 L10.000,5.989 C10.000,5.342 9.442,4.800 8.754,4.800 L8.750,4.800 L8.750,2.767 C8.750,1.244 7.071,0.000 5.000,0.000 C2.915,0.000 1.250,1.239 1.250,2.767 L1.250,4.800 Z"/>
</symbol><symbol id="icon-pdf" viewBox="0 0 23 9">
<g>
	<path d="M6.444,2.616c0,0.496-0.092,0.914-0.276,1.254C5.984,4.21,5.736,4.484,5.424,4.692C5.112,4.9,4.752,5.052,4.344,5.148
		C3.936,5.244,3.512,5.292,3.072,5.292h-1.02v3.204H0V0h3.12c0.464,0,0.898,0.046,1.302,0.138s0.756,0.24,1.056,0.444
		s0.536,0.472,0.708,0.804C6.358,1.718,6.444,2.128,6.444,2.616z M4.392,2.628c0-0.2-0.04-0.364-0.12-0.492s-0.188-0.228-0.324-0.3
		c-0.136-0.072-0.29-0.12-0.462-0.144c-0.172-0.024-0.35-0.036-0.534-0.036h-0.9V3.66h0.864c0.192,0,0.376-0.016,0.552-0.048
		C3.644,3.58,3.802,3.524,3.942,3.444c0.14-0.08,0.25-0.186,0.33-0.318C4.352,2.994,4.392,2.828,4.392,2.628z"/>
	<path d="M15.612,4.224c0,0.744-0.138,1.386-0.414,1.926s-0.64,0.984-1.092,1.332c-0.452,0.348-0.962,0.604-1.53,0.768
		c-0.568,0.164-1.144,0.246-1.728,0.246H7.68V0h3.072c0.6,0,1.192,0.07,1.776,0.21c0.584,0.14,1.104,0.372,1.56,0.696
		c0.456,0.324,0.824,0.758,1.104,1.302C15.472,2.752,15.612,3.424,15.612,4.224z M13.476,4.224c0-0.48-0.078-0.878-0.234-1.194
		c-0.156-0.316-0.364-0.568-0.624-0.756c-0.26-0.188-0.556-0.322-0.888-0.402s-0.674-0.12-1.026-0.12h-1.02V6.72h0.972
		c0.368,0,0.722-0.042,1.062-0.126c0.34-0.084,0.64-0.222,0.9-0.414c0.26-0.192,0.468-0.448,0.624-0.768
		C13.398,5.092,13.476,4.696,13.476,4.224z"/>
	<path d="M18.996,1.752v1.752h3.288v1.692h-3.288v3.3h-2.028V0h5.592v1.752H18.996z"/>
</g>
</symbol><symbol id="icon-percent" viewBox="0 0 14 11">
<path fill-rule="evenodd" d="M11.000,10.999 C9.343,10.999 8.000,9.657 8.000,8.000 C8.000,6.343 9.343,5.000 11.000,5.000 C12.657,5.000 14.000,6.343 14.000,8.000 C14.000,9.657 12.657,10.999 11.000,10.999 ZM11.000,7.000 C10.447,7.000 10.000,7.447 10.000,8.000 C10.000,8.552 10.447,9.000 11.000,9.000 C11.552,9.000 12.000,8.552 12.000,8.000 C12.000,7.447 11.552,7.000 11.000,7.000 ZM9.868,2.496 L5.868,9.495 L5.854,9.488 C5.682,9.788 5.371,10.000 5.000,10.000 C4.447,10.000 4.000,9.551 4.000,9.000 C4.000,8.818 4.061,8.658 4.145,8.512 L4.132,8.503 L8.132,1.503 L8.145,1.511 C8.318,1.211 8.629,1.000 9.000,1.000 C9.552,1.000 10.000,1.447 10.000,1.999 C10.000,2.181 9.938,2.342 9.854,2.488 L9.868,2.496 ZM3.000,5.999 C1.343,5.999 -0.000,4.656 -0.000,2.999 C-0.000,1.343 1.343,-0.000 3.000,-0.000 C4.657,-0.000 6.000,1.343 6.000,2.999 C6.000,4.656 4.657,5.999 3.000,5.999 ZM3.000,1.999 C2.448,1.999 2.000,2.447 2.000,2.999 C2.000,3.552 2.448,4.000 3.000,4.000 C3.552,4.000 4.000,3.552 4.000,2.999 C4.000,2.447 3.552,1.999 3.000,1.999 Z"/>
</symbol><symbol id="icon-telegram" viewBox="0 0 512 512">


<g id="Layer_1">

<path class="st2" d="M201.4,280.7c-9.8-3-19.7-6.1-29.5-9.1c-4.8-1.5-9.6-3-14.4-4.5c-1.8-0.6-3.5-1.2-5-2.3    c-2.8-2.1-3-4.7-0.6-7.3c1.6-1.8,3.6-3,5.8-3.9c5.8-2.3,11.6-4.6,17.4-6.9c40-15.4,80-30.9,120.1-46.3c12.7-4.9,25.3-9.8,38-14.7    c1.7-0.7,3.5-1.1,5.4-0.8c3.8,0.6,6.7,3.7,7.1,7.7c0.2,2.2,0.1,4.4-0.3,6.6c-4.9,23-9.8,46.1-14.7,69.1c-4,19-8.1,38-12.1,57.1    c-0.9,4.3-1.8,8.6-2.7,12.9c-0.4,2.1-1,4.1-2,6c-2,3.7-5.2,5.1-9.3,4.3c-2.5-0.5-4.7-1.6-6.7-3.1c-13.8-10.2-27.6-20.5-41.5-30.7    c-0.6-0.5-1.3-0.9-1.9-1.3c-2.4-0.7-4.1-2.5-6-3.9c-6.6-4.8-13.2-9.8-19.8-14.6c-0.5-0.4-1-0.8-1.4-1.3c-0.6-1,0-1.6,0.6-2.2    c9-8,17.9-16.2,26.9-24.2c6.5-5.9,13.1-11.8,19.6-17.7c6.5-5.9,13-11.7,19.5-17.5c5.1-4.6,10.2-9.1,15.2-13.7    c0.4-0.4,0.8-0.8,1.2-1.2c0.3-0.4,0.7-0.8,0.5-1.3c-0.2-0.6-0.8-0.6-1.3-0.6c-1.8-0.2-3.3,0.5-4.8,1.4    c-5.5,3.3-10.8,6.8-16.2,10.2c-16.4,10.3-32.9,20.7-49.3,31c-11.3,7.1-22.6,14.2-33.9,21.4C204,280,203.1,281.3,201.4,280.7z"/>

<path class="st4" d="M224,338.7c-0.3-3.9,0.4-7.8,0.5-11.6c0.2-4.2,0.6-8.4,0.8-12.6c0.3-4.3,0.6-8.6,0.9-12.8    c0.1-2.2,0.3-4.4,0.3-6.5c0-0.7,0.2-1.2,0.9-1.6c8.1,6,16.2,11.9,24.2,17.9c0.9,0.7,1.9,1.2,2.6,2.1c-7.5,7.3-15.1,14.6-22.6,21.9    C229.6,337.5,227.2,339.1,224,338.7z"/></g></symbol><symbol id="icon-tg" viewBox="0 0 512 512">
<g>
	<path d="M425.602,95.168L79.253,228.755c-23.639,9.484-23.499,22.669-4.309,28.547l86.38,26.961l33.051,101.334
		c4.018,11.09,2.038,15.488,13.684,15.488c8.988,0,12.975-4.098,17.981-8.988c3.184-3.115,22.084-21.49,43.188-42.008l89.852,66.385
		c16.533,9.123,28.473,4.396,32.59-15.355l58.98-277.939C456.688,98.97,441.42,87.989,425.602,95.168z M174.881,278.07
		l194.701-122.838c9.721-5.895,18.633-2.726,11.314,3.77l-166.714,150.42l-6.492,69.234L174.881,278.07z"/>
</g>
</symbol></svg>