<?xml version="1.0" encoding="UTF-8"?><!DOCTYPE svg PUBLIC "-//W3C//DTD SVG 1.1//EN" "http://www.w3.org/Graphics/SVG/1.1/DTD/svg11.dtd"><svg xmlns="http://www.w3.org/2000/svg" xmlns:xlink="http://www.w3.org/1999/xlink" xmlns:sketch="http://www.bohemiancoding.com/sketch/ns" xmlns:cc="http://creativecommons.org/ns#" xmlns:dc="http://purl.org/dc/elements/1.1/" xmlns:inkscape="http://www.inkscape.org/namespaces/inkscape" xmlns:rdf="http://www.w3.org/1999/02/22-rdf-syntax-ns#" xmlns:sodipodi="http://sodipodi.sourceforge.net/DTD/sodipodi-0.dtd" xmlns:svg="http://www.w3.org/2000/svg"><symbol id="icon-close" viewBox="0 0 100 100">
    <path d="M9 7.615L16.615 0 18 1.385 10.385 9 18 16.615 16.615 18 9 10.385 1.385 18 0 16.615 7.615 9 0 1.385 1.385 0z" fill-rule="evenodd"/>
</symbol><symbol id="icon-facebook" viewBox="0 0 10 19">
    <!-- Generator: Sketch 3.3.3 (12072) - http://www.bohemiancoding.com/sketch -->
    <title>facebook</title>
    <desc>Created with Sketch.</desc>
    
    <g id="Page-1" stroke-width="1" fill-rule="evenodd" sketch:type="MSPage">
        <path d="M9.76616526,0.156928571 L9.76616526,3.10335714 L8.01393311,3.10335714 C7.37405216,3.10335714 6.94250454,3.23728571 6.71929026,3.50514286 C6.49607597,3.773 6.38446883,4.17478571 6.38446883,4.7105 L6.38446883,6.819875 L9.65455811,6.819875 L9.21929026,10.1234464 L6.38446883,10.1234464 L6.38446883,18.5944286 L2.96929026,18.5944286 L2.96929026,10.1234464 L0.123308113,10.1234464 L0.123308113,6.819875 L2.96929026,6.819875 L2.96929026,4.38683929 C2.96929026,3.00291071 3.35619502,1.92962202 4.13000454,1.16697321 C4.90381407,0.404324405 5.93432002,0.023 7.2215224,0.023 C8.3152724,0.023 9.16348668,0.0676428571 9.76616526,0.156928571 L9.76616526,0.156928571 Z" id="facebook" sketch:type="MSShapeGroup"/>
    </g>
</symbol><symbol id="icon-fb" viewBox="0 0 512 512">


<path d="M348.49,35.511H163.512c-70.692,0-128,57.307-128,128v184.978c0,70.693,57.308,128,128,128h97.091  v-163.96h-55.542v-69.428h55.542v-41.657c0-57.194,32.284-97.199,83.313-97.199c24.438,0,41.656,0,55.542,0v69.428h-27.771  c-27.743,0-41.657,13.885-41.657,41.657v27.771h69.428l-13.886,69.428h-55.542v163.96h18.459c70.693,0,128-57.307,128-128V163.511  C476.49,92.819,419.183,35.511,348.49,35.511z"/></symbol><symbol id="icon-lock" viewBox="0 0 10 12">
<path fill-rule="evenodd" d="M2.500,4.788 L7.500,4.789 L7.500,2.669 C7.500,1.810 6.378,1.108 5.000,1.108 C3.609,1.108 2.500,1.802 2.500,2.669 L2.500,4.788 ZM1.250,4.800 L1.246,4.800 C0.566,4.800 -0.000,5.332 -0.000,5.989 L-0.000,10.811 C-0.000,11.459 0.558,12.001 1.246,12.001 L8.754,12.001 C9.433,12.001 10.000,11.467 10.000,10.811 L10.000,5.989 C10.000,5.342 9.442,4.800 8.754,4.800 L8.750,4.800 L8.750,2.767 C8.750,1.244 7.071,0.000 5.000,0.000 C2.915,0.000 1.250,1.239 1.250,2.767 L1.250,4.800 Z"/>
</symbol><symbol id="icon-qq" viewBox="0 0 512 512">
    <g>    
    <path d="M 127.88103,94.198045 -218.4667,227.78507 c -23.63879,9.48433 -23.4986,22.66901 -4.30871,28.54816 l 86.38017,26.96101 33.05108,101.33207 c 4.018041,11.09077 2.03732,15.48953 13.683731,15.48953 8.98786,0 12.97504,-4.09778 17.98087,-8.98786 3.1833,-3.11513 22.08378,-21.49087 43.18752,-42.00936 l 89.85158,66.38643 c 16.5339,9.12161 28.47227,4.39617 32.58935,-15.35577 L 152.92948,122.20987 C 158.96812,98.000015 143.69981,87.018565 127.88103,94.198045 z M -122.83885,277.09998 71.862531,154.2616 c 9.71969,-5.89458 18.63166,-2.72542 11.31455,3.76981 l -166.71528,150.41932 -6.49136,69.23533 -32.809291,-100.58608 z"/>
	</g>
    
  </symbol><symbol id="icon-telegram" viewBox="0 0 512 512">


<g id="Layer_1">

<path class="st2" d="M201.4,280.7c-9.8-3-19.7-6.1-29.5-9.1c-4.8-1.5-9.6-3-14.4-4.5c-1.8-0.6-3.5-1.2-5-2.3    c-2.8-2.1-3-4.7-0.6-7.3c1.6-1.8,3.6-3,5.8-3.9c5.8-2.3,11.6-4.6,17.4-6.9c40-15.4,80-30.9,120.1-46.3c12.7-4.9,25.3-9.8,38-14.7    c1.7-0.7,3.5-1.1,5.4-0.8c3.8,0.6,6.7,3.7,7.1,7.7c0.2,2.2,0.1,4.4-0.3,6.6c-4.9,23-9.8,46.1-14.7,69.1c-4,19-8.1,38-12.1,57.1    c-0.9,4.3-1.8,8.6-2.7,12.9c-0.4,2.1-1,4.1-2,6c-2,3.7-5.2,5.1-9.3,4.3c-2.5-0.5-4.7-1.6-6.7-3.1c-13.8-10.2-27.6-20.5-41.5-30.7    c-0.6-0.5-1.3-0.9-1.9-1.3c-2.4-0.7-4.1-2.5-6-3.9c-6.6-4.8-13.2-9.8-19.8-14.6c-0.5-0.4-1-0.8-1.4-1.3c-0.6-1,0-1.6,0.6-2.2    c9-8,17.9-16.2,26.9-24.2c6.5-5.9,13.1-11.8,19.6-17.7c6.5-5.9,13-11.7,19.5-17.5c5.1-4.6,10.2-9.1,15.2-13.7    c0.4-0.4,0.8-0.8,1.2-1.2c0.3-0.4,0.7-0.8,0.5-1.3c-0.2-0.6-0.8-0.6-1.3-0.6c-1.8-0.2-3.3,0.5-4.8,1.4    c-5.5,3.3-10.8,6.8-16.2,10.2c-16.4,10.3-32.9,20.7-49.3,31c-11.3,7.1-22.6,14.2-33.9,21.4C204,280,203.1,281.3,201.4,280.7z"/>

<path class="st4" d="M224,338.7c-0.3-3.9,0.4-7.8,0.5-11.6c0.2-4.2,0.6-8.4,0.8-12.6c0.3-4.3,0.6-8.6,0.9-12.8    c0.1-2.2,0.3-4.4,0.3-6.5c0-0.7,0.2-1.2,0.9-1.6c8.1,6,16.2,11.9,24.2,17.9c0.9,0.7,1.9,1.2,2.6,2.1c-7.5,7.3-15.1,14.6-22.6,21.9    C229.6,337.5,227.2,339.1,224,338.7z"/></g></symbol><symbol id="icon-tg" viewBox="0 0 512 512">
<g>
	<path d="M425.602,95.168L79.253,228.755c-23.639,9.484-23.499,22.669-4.309,28.547l86.38,26.961l33.051,101.334
		c4.018,11.09,2.038,15.488,13.684,15.488c8.988,0,12.975-4.098,17.981-8.988c3.184-3.115,22.084-21.49,43.188-42.008l89.852,66.385
		c16.533,9.123,28.473,4.396,32.59-15.355l58.98-277.939C456.688,98.97,441.42,87.989,425.602,95.168z M174.881,278.07
		l194.701-122.838c9.721-5.895,18.633-2.726,11.314,3.77l-166.714,150.42l-6.492,69.234L174.881,278.07z"/>
</g>
</symbol></svg>