<svg 
 xmlns="http://www.w3.org/2000/svg"
 xmlns:xlink="http://www.w3.org/1999/xlink"
 width="16px" height="16px">
<path fill-rule="evenodd"  fill="rgb(147, 32, 99)"
 d="M14.000,15.999 L2.000,15.999 C0.895,15.999 -0.000,15.104 -0.000,14.000 L-0.000,5.000 C-0.000,3.895 0.895,2.999 2.000,2.999 L4.000,2.999 L4.000,1.999 C4.000,0.895 4.895,-0.000 6.000,-0.000 L10.000,-0.000 C11.104,-0.000 12.000,0.895 12.000,1.999 L12.000,2.999 L14.000,2.999 C15.104,2.999 16.000,3.895 16.000,5.000 L16.000,14.000 C16.000,15.104 15.104,15.999 14.000,15.999 ZM9.500,1.999 L6.500,1.999 C6.224,1.999 6.000,2.223 6.000,2.499 C6.000,2.776 6.224,2.999 6.500,2.999 L9.500,2.999 C9.776,2.999 10.000,2.776 10.000,2.499 C10.000,2.223 9.776,1.999 9.500,1.999 ZM13.000,5.000 L3.000,5.000 C2.447,5.000 2.000,5.447 2.000,5.999 C2.000,6.552 2.447,7.000 3.000,7.000 L13.000,7.000 C13.552,7.000 14.000,6.552 14.000,5.999 C14.000,5.447 13.552,5.000 13.000,5.000 ZM14.000,9.999 C14.000,9.448 13.552,9.000 13.000,9.000 L12.000,9.000 L12.000,9.999 C12.000,10.551 11.552,11.000 11.000,11.000 C10.447,11.000 10.000,10.551 10.000,9.999 L10.000,9.000 L6.000,9.000 L6.000,9.999 C6.000,10.551 5.552,11.000 5.000,11.000 C4.448,11.000 4.000,10.551 4.000,9.999 L4.000,9.000 L3.000,9.000 C2.447,9.000 2.000,9.448 2.000,9.999 L2.000,13.000 C2.000,13.551 2.447,14.000 3.000,14.000 L13.000,14.000 C13.552,14.000 14.000,13.551 14.000,13.000 L14.000,9.999 Z"/>
</svg>