<svg 
 xmlns="http://www.w3.org/2000/svg"
 xmlns:xlink="http://www.w3.org/1999/xlink"
 width="16px" height="16px">
<path fill-rule="evenodd"  fill="rgb(147, 32, 99)"
 d="M15.707,1.706 L15.707,1.706 L14.707,2.707 L13.301,4.112 C13.738,4.806 14.000,5.620 14.000,6.500 C14.000,7.612 13.581,8.617 12.912,9.403 C12.756,9.753 12.408,10.000 12.000,10.000 C11.724,10.000 11.474,9.887 11.293,9.707 L11.293,9.707 L11.000,9.414 L9.707,10.706 L9.707,10.706 C9.526,10.888 9.276,11.000 9.000,11.000 C8.448,11.000 8.000,10.552 8.000,10.000 C8.000,9.723 8.112,9.473 8.293,9.292 L8.293,9.292 L9.586,7.999 L8.000,6.414 L6.707,7.707 L6.707,7.707 C6.526,7.888 6.276,7.999 6.000,7.999 C5.448,7.999 5.000,7.552 5.000,7.000 C5.000,6.723 5.112,6.473 5.293,6.293 L5.293,6.293 L6.586,4.999 L6.293,4.707 L6.293,4.707 C6.112,4.526 6.000,4.275 6.000,4.000 C6.000,3.591 6.246,3.243 6.597,3.088 C7.382,2.419 8.387,1.999 9.500,1.999 C10.380,1.999 11.194,2.262 11.887,2.698 L13.293,1.292 L14.293,0.292 L14.293,0.292 C14.474,0.112 14.724,-0.000 15.000,-0.000 C15.552,-0.000 16.000,0.447 16.000,0.999 C16.000,1.276 15.888,1.526 15.707,1.706 ZM7.707,13.293 C7.888,13.474 8.000,13.723 8.000,13.999 C8.000,14.155 7.955,14.296 7.892,14.427 C7.741,14.602 7.579,14.762 7.403,14.911 C7.210,15.076 7.003,15.225 6.785,15.356 C6.770,15.365 6.755,15.372 6.741,15.380 C6.538,15.500 6.326,15.604 6.105,15.691 C6.025,15.722 5.940,15.742 5.858,15.768 C5.689,15.823 5.521,15.880 5.345,15.914 C5.071,15.966 4.789,16.000 4.500,16.000 C4.230,16.000 3.969,15.965 3.712,15.920 C3.615,15.902 3.520,15.880 3.425,15.856 C3.277,15.820 3.134,15.772 2.992,15.721 C2.684,15.609 2.387,15.474 2.113,15.302 L2.113,15.302 L1.707,15.706 L1.691,15.691 C1.515,15.876 1.278,16.000 1.000,16.000 C0.448,16.000 -0.000,15.552 -0.000,14.999 C-0.000,14.721 0.123,14.484 0.309,14.309 L0.293,14.292 L0.698,13.887 L0.698,13.887 C0.526,13.613 0.390,13.316 0.278,13.008 C0.227,12.865 0.180,12.722 0.143,12.574 C0.120,12.480 0.097,12.384 0.080,12.288 C0.034,12.030 -0.000,11.769 -0.000,11.499 C-0.000,11.210 0.033,10.928 0.085,10.655 C0.120,10.478 0.176,10.310 0.231,10.142 C0.258,10.059 0.277,9.975 0.308,9.895 C0.395,9.673 0.500,9.461 0.619,9.258 C0.628,9.244 0.634,9.229 0.643,9.215 C0.775,8.997 0.923,8.790 1.088,8.596 C1.237,8.421 1.398,8.259 1.572,8.108 C1.703,8.044 1.844,7.999 2.000,7.999 C2.276,7.999 2.526,8.112 2.707,8.292 L2.707,8.292 L7.707,13.293 L7.707,13.293 Z"/>
</svg>