<svg 
 xmlns="http://www.w3.org/2000/svg"
 xmlns:xlink="http://www.w3.org/1999/xlink"
 width="16px" height="12px">
<path fill-rule="evenodd"  fill="rgb(147, 32, 99)"
 d="M15.000,5.000 C14.447,5.000 14.000,4.552 14.000,3.999 L14.000,3.414 L9.707,7.706 L9.707,7.706 C9.526,7.888 9.276,8.000 9.000,8.000 C8.724,8.000 8.474,7.888 8.293,7.706 L8.293,7.706 L7.000,6.414 L4.707,8.707 L4.707,8.707 C4.526,8.888 4.276,9.000 4.000,9.000 C3.448,9.000 3.000,8.552 3.000,8.000 C3.000,7.723 3.112,7.473 3.293,7.293 L3.293,7.293 L6.293,4.292 L6.293,4.292 C6.473,4.111 6.724,3.999 7.000,3.999 C7.276,3.999 7.526,4.111 7.707,4.292 L7.707,4.292 L9.000,5.585 L12.586,1.999 L12.000,1.999 C11.448,1.999 11.000,1.552 11.000,1.000 C11.000,0.448 11.448,-0.000 12.000,-0.000 L15.000,-0.000 C15.552,-0.000 16.000,0.448 16.000,1.000 L16.000,3.999 C16.000,4.552 15.552,5.000 15.000,5.000 ZM15.000,10.000 C15.552,10.000 16.000,10.447 16.000,10.999 C16.000,11.551 15.552,11.999 15.000,11.999 L1.000,11.999 C0.447,11.999 -0.000,11.551 -0.000,10.999 L-0.000,1.000 C-0.000,0.448 0.447,-0.000 1.000,-0.000 C1.552,-0.000 2.000,0.448 2.000,1.000 L2.000,10.000 L15.000,10.000 Z"/>
</svg>