<svg 
 xmlns="http://www.w3.org/2000/svg"
 xmlns:xlink="http://www.w3.org/1999/xlink"
 width="14px" height="11px">
<path fill-rule="evenodd"  fill="rgb(147, 32, 99)"
 d="M11.000,10.999 C9.343,10.999 8.000,9.657 8.000,8.000 C8.000,6.343 9.343,5.000 11.000,5.000 C12.657,5.000 14.000,6.343 14.000,8.000 C14.000,9.657 12.657,10.999 11.000,10.999 ZM11.000,7.000 C10.447,7.000 10.000,7.447 10.000,8.000 C10.000,8.552 10.447,9.000 11.000,9.000 C11.552,9.000 12.000,8.552 12.000,8.000 C12.000,7.447 11.552,7.000 11.000,7.000 ZM9.868,2.496 L5.868,9.495 L5.854,9.488 C5.682,9.788 5.371,10.000 5.000,10.000 C4.447,10.000 4.000,9.551 4.000,9.000 C4.000,8.818 4.061,8.658 4.145,8.512 L4.132,8.503 L8.132,1.503 L8.145,1.511 C8.318,1.211 8.629,1.000 9.000,1.000 C9.552,1.000 10.000,1.447 10.000,1.999 C10.000,2.181 9.938,2.342 9.854,2.488 L9.868,2.496 ZM3.000,5.999 C1.343,5.999 -0.000,4.656 -0.000,2.999 C-0.000,1.343 1.343,-0.000 3.000,-0.000 C4.657,-0.000 6.000,1.343 6.000,2.999 C6.000,4.656 4.657,5.999 3.000,5.999 ZM3.000,1.999 C2.448,1.999 2.000,2.447 2.000,2.999 C2.000,3.552 2.448,4.000 3.000,4.000 C3.552,4.000 4.000,3.552 4.000,2.999 C4.000,2.447 3.552,1.999 3.000,1.999 Z"/>
</svg>