<svg xmlns="http://www.w3.org/2000/svg"><symbol id="education" viewBox="0 0 24.96 16.39"><path d="M12.21 11.76a.9.9 0 0 1-.4-.08L.6 6.8a1 1 0 0 1-.6-.92A1 1 0 0 1 .6 5L11.81.08a1 1 0 0 1 .8 0L23.81 5a1 1 0 0 1 .6.91 1 1 0 0 1-.6.92l-11.2 4.88a1 1 0 0 1-.4.08zM3.5 5.88l8.71 3.79 8.7-3.79-8.7-3.79L3.5 5.88z"/><path d="M12.21 16.39a15.63 15.63 0 0 1-8.77-2.73 1 1 0 0 1-.44-.83V7.5a1 1 0 0 1 2 0v4.79a13.45 13.45 0 0 0 14.41 0V7.5a1 1 0 0 1 2 0v5.33a1 1 0 0 1-.44.83 15.63 15.63 0 0 1-8.76 2.73zM24 13.67a.5.5 0 0 1-.5-.5V5.83a.5.5 0 0 1 .5-.5.51.51 0 0 1 .5.5v7.34a.51.51 0 0 1-.5.5z"/><path d="M24 14.17a1 1 0 0 1-1-1v-3.5a1 1 0 0 1 2 0v3.5a1 1 0 0 1-1 1z"/></symbol><symbol id="house" viewBox="0 0 26.03 19.56"><path d="M22 19.56h-6.38a1 1 0 0 1-1-1v-6.31h-3.21v6.31a1 1 0 0 1-1 1H4a1 1 0 0 1-1-1V8.17a1 1 0 0 1 2 0v9.39h4.4v-6.31a1 1 0 0 1 1-1h5.21a1 1 0 0 1 1 1v6.31H21V8.17a1 1 0 1 1 2 0v10.39a1 1 0 0 1-1 1z"/><path d="M25 10.6a1 1 0 0 1-.58-.18L13 2.23 1.58 10.42A1 1 0 0 1 .42 8.79l12-8.6a1 1 0 0 1 1.17 0l12 8.6a1 1 0 0 1 .23 1.4 1 1 0 0 1-.81.41z"/></symbol><symbol id="music" viewBox="0 0 23.68 23.55"><path d="M2.7 23.55A2.44 2.44 0 0 1 0 21.69c-.35-1.88 1.59-3.89 3.6-4.84a6.2 6.2 0 0 1 2.59-.64 2.43 2.43 0 0 1 2.65 1.87C9.23 20 7.29 22 5.28 22.91a6.16 6.16 0 0 1-2.58.64zm3.53-5.34a4.32 4.32 0 0 0-1.74.45c-1.64.78-2.58 2.11-2.48 2.66 0 .18.45.23.69.23a4.27 4.27 0 0 0 1.73-.45C6.08 20.32 7 19 6.92 18.44c0-.18-.45-.23-.69-.23z"/><path d="M8.92 18.25h-2V4.58h2v13.67zM17.45 20a2.45 2.45 0 0 1-2.66-1.87c-.35-1.87 1.6-3.89 3.6-4.83a6.2 6.2 0 0 1 2.61-.67 2.45 2.45 0 0 1 2.66 1.86C24 16.37 22 18.38 20 19.33a6.24 6.24 0 0 1-2.59.64zM21 14.63a4.32 4.32 0 0 0-1.74.45c-1.64.77-2.58 2.11-2.48 2.65 0 .19.45.24.69.24a4.27 4.27 0 0 0 1.73-.45c1.65-.78 2.59-2.12 2.49-2.66 0-.18-.45-.23-.69-.23z"/><path d="M23.67 14.67h-2V1h2v13.67z"/><path d="M7.92 10.21a1 1 0 0 1-1-1V4.58a1 1 0 0 1 .77-1L22.44 0a1 1 0 0 1 1.23 1v4.63a1 1 0 0 1-.76 1L8.16 10.19h-.24zm1-4.84v2.57l12.75-3.1V2.27L8.92 5.37zM2.7 23.55A2.44 2.44 0 0 1 0 21.69c-.35-1.88 1.59-3.89 3.6-4.84a6.2 6.2 0 0 1 2.59-.64 2.43 2.43 0 0 1 2.65 1.87C9.23 20 7.29 22 5.28 22.91a6.16 6.16 0 0 1-2.58.64zm3.53-5.34a4.32 4.32 0 0 0-1.74.45c-1.64.78-2.58 2.11-2.48 2.66 0 .18.45.23.69.23a4.27 4.27 0 0 0 1.73-.45C6.08 20.32 7 19 6.92 18.44c0-.18-.45-.23-.69-.23z"/><path d="M8.92 18.25h-2V4.58h2v13.67zM17.45 20a2.45 2.45 0 0 1-2.66-1.87c-.35-1.87 1.6-3.89 3.6-4.83a6.2 6.2 0 0 1 2.61-.67 2.45 2.45 0 0 1 2.66 1.86C24 16.37 22 18.38 20 19.33a6.24 6.24 0 0 1-2.59.64zM21 14.63a4.32 4.32 0 0 0-1.74.45c-1.64.77-2.58 2.11-2.48 2.65 0 .19.45.24.69.24a4.27 4.27 0 0 0 1.73-.45c1.65-.78 2.59-2.12 2.49-2.66 0-.18-.45-.23-.69-.23z"/><path d="M23.67 14.67h-2V1h2v13.67z"/><path d="M7.92 10.21a1 1 0 0 1-1-1V4.58a1 1 0 0 1 .77-1L22.44 0a1 1 0 0 1 1.23 1v4.63a1 1 0 0 1-.76 1L8.16 10.19h-.24zm1-4.84v2.57l12.75-3.1V2.27L8.92 5.37z"/></symbol><symbol id="transport" viewBox="0 0 21.75 23.5"><path d="M20.75 20.58H1a1 1 0 0 1-1-1V7a7 7 0 0 1 7-7h7.75a7 7 0 0 1 7 7v12.58a1 1 0 0 1-1 1zM2 18.58h17.75V7a5 5 0 0 0-5-5H7a5 5 0 0 0-5 5v11.58z"/><path d="M5 23.5c-1.88 0-3-.61-3-1.63V20.5a1 1 0 0 1 2 0v.89a4 4 0 0 0 1 .11 4 4 0 0 0 1-.11v-.89a1 1 0 1 1 2 0v1.37c0 1-1.12 1.63-3 1.63zm11.71 0c-1.88 0-3-.61-3-1.63V20.5a1 1 0 0 1 2 0v.89a4.6 4.6 0 0 0 2 0v-.89a1 1 0 0 1 2 0v1.37c0 1-1.12 1.63-3 1.63zm-1-18.58H6a1 1 0 0 1 0-2h9.67a1 1 0 0 1 0 2zm-9.59 8.67a1.5 1.5 0 1 0 1.5 1.49 1.49 1.49 0 0 0-1.5-1.49zm9.5 0a1.5 1.5 0 1 0 1.5 1.49 1.49 1.49 0 0 0-1.5-1.49zm2.13-.72H4a1.5 1.5 0 0 1-1.5-1.5V7A1.5 1.5 0 0 1 4 5.5h13.75a1.5 1.5 0 0 1 1.5 1.5v4.37a1.5 1.5 0 0 1-1.5 1.5zM4 6.5a.5.5 0 0 0-.5.5v4.37a.5.5 0 0 0 .5.5h13.75a.5.5 0 0 0 .5-.5V7a.5.5 0 0 0-.5-.5z"/></symbol><symbol id="user" viewBox="0 0 18.28 22.62"><path d="M15.87 16a.92.92 0 0 1-.42-.1 14.53 14.53 0 0 0-2.27-.83l.53-1.93a15.75 15.75 0 0 1 1.68.56 9.57 9.57 0 0 0 .68-3.54C16.07 5.67 13 2 9.14 2s-6.93 3.67-6.93 8.18a9.37 9.37 0 0 0 .68 3.54 15 15 0 0 1 1.68-.56l.52 1.93a14.05 14.05 0 0 0-2.26.83 1 1 0 0 1-1.31-.43 11.19 11.19 0 0 1-1.31-5.31C.21 4.57 4.21 0 9.14 0s8.93 4.57 8.93 10.18a11.19 11.19 0 0 1-1.31 5.31 1 1 0 0 1-.89.53z"/><path d="M9.14 17.18a4.36 4.36 0 0 1-.51 0C6 16.86 4 14.37 3.17 10.32A7.65 7.65 0 0 1 3 9.08a.5.5 0 0 1 .13-.37.52.52 0 0 1 .37-.16h2.76l.45-3.22a.5.5 0 0 1 .49-.43.51.51 0 0 1 .5.43l.45 3.22h.7L9 7a.5.5 0 0 1 .49-.45A.5.5 0 0 1 10 7l.15 1.51h4.62a.48.48 0 0 1 .36.16.47.47 0 0 1 .14.37 10.62 10.62 0 0 1-.15 1.23 10.82 10.82 0 0 1-2.29 5.11l-.24.25-.45-.26.35.35c-.17.16-.28.25-.39.34l-.4-.32.31.4-.36.24-.09.06-.36.2-.12.06-.34.14h-.1l-.27.08-.26-.45.14.48h-.1l-.32.05h-.17a2.82 2.82 0 0 1-.41 0zm.38-1l.22.47-.07-.5h.24l.24.45-.15-.54.27-.07.37-.15.36-.2.36-.25c.17-.13.26-.21.35-.29l.1-.1.24-.24a10 10 0 0 0 2.06-4.63c0-.18.06-.37.08-.57h-4.5a.41.41 0 0 1-.19 0 .45.45 0 0 1-.2 0H7.71a.49.49 0 0 1-.49-.43v-.1.1a.51.51 0 0 1-.5.43H4.06a4.85 4.85 0 0 0 .09.57c.73 3.59 2.41 5.79 4.59 6h.78z"/><path d="M2 22.62H0a7 7 0 0 1 7.19-6.76v2A5 5 0 0 0 2 22.62zm16.28 0h-2a5 5 0 0 0-5.2-4.76v-2a7 7 0 0 1 7.2 6.76zM7 10.3a.59.59 0 1 0 0 1.17.59.59 0 0 0 0-1.17zm4.25 0a.59.59 0 1 0 .58.58.58.58 0 0 0-.58-.58z"/></symbol></svg>