<svg data-name="Layer 3" xmlns="http://www.w3.org/2000/svg" viewBox="0 0 21.75 23.5" fill="#fff"><path d="M20.75 20.58H1a1 1 0 0 1-1-1V7a7 7 0 0 1 7-7h7.75a7 7 0 0 1 7 7v12.58a1 1 0 0 1-1 1zM2 18.58h17.75V7a5 5 0 0 0-5-5H7a5 5 0 0 0-5 5v11.58z"/><path d="M5 23.5c-1.88 0-3-.61-3-1.63V20.5a1 1 0 0 1 2 0v.89a4 4 0 0 0 1 .11 4 4 0 0 0 1-.11v-.89a1 1 0 1 1 2 0v1.37c0 1-1.12 1.63-3 1.63zm11.71 0c-1.88 0-3-.61-3-1.63V20.5a1 1 0 0 1 2 0v.89a4.6 4.6 0 0 0 2 0v-.89a1 1 0 0 1 2 0v1.37c0 1-1.12 1.63-3 1.63zm-1-18.58H6a1 1 0 0 1 0-2h9.67a1 1 0 0 1 0 2zm-9.59 8.67a1.5 1.5 0 1 0 1.5 1.49 1.49 1.49 0 0 0-1.5-1.49zm9.5 0a1.5 1.5 0 1 0 1.5 1.49 1.49 1.49 0 0 0-1.5-1.49zm2.13-.72H4a1.5 1.5 0 0 1-1.5-1.5V7A1.5 1.5 0 0 1 4 5.5h13.75a1.5 1.5 0 0 1 1.5 1.5v4.37a1.5 1.5 0 0 1-1.5 1.5zM4 6.5a.5.5 0 0 0-.5.5v4.37a.5.5 0 0 0 .5.5h13.75a.5.5 0 0 0 .5-.5V7a.5.5 0 0 0-.5-.5z"/></svg>