<?xml version="1.0" standalone="no"?>
<!DOCTYPE svg PUBLIC "-//W3C//DTD SVG 20010904//EN"
 "http://www.w3.org/TR/2001/REC-SVG-20010904/DTD/svg10.dtd">
<svg version="1.0" xmlns="http://www.w3.org/2000/svg"
 width="260.000000pt" height="260.000000pt" viewBox="0 0 260.000000 260.000000"
 preserveAspectRatio="xMidYMid meet">
<metadata>
Created by potrace 1.11, written by Peter Selinger 2001-2013
</metadata>
<g transform="translate(0.000000,260.000000) scale(0.100000,-0.100000)"
fill="#000000" stroke="none">
<path d="M0 1300 l0 -1300 1300 0 1300 0 0 1300 0 1300 -1300 0 -1300 0 0
-1300z m1314 908 c8 -13 18 -35 21 -50 4 -14 15 -34 26 -43 10 -10 23 -34 30
-54 6 -20 22 -47 34 -61 12 -14 27 -40 33 -58 6 -19 23 -47 37 -64 14 -16 25
-37 25 -47 0 -10 9 -26 20 -36 11 -10 31 -41 46 -69 54 -108 79 -154 93 -170
8 -9 25 -38 38 -64 43 -84 83 -153 103 -179 11 -14 20 -31 20 -37 0 -7 13 -30
29 -52 16 -21 32 -50 36 -64 4 -14 15 -34 25 -45 10 -11 28 -41 38 -66 11 -26
25 -50 32 -54 6 -4 22 -30 36 -58 13 -29 41 -79 61 -112 20 -33 48 -81 62
-107 14 -26 47 -81 74 -124 50 -82 54 -95 33 -113 -9 -8 -281 -11 -984 -11
-535 0 -979 3 -987 6 -30 12 -11 100 29 133 9 7 27 36 41 64 39 77 67 127 98
172 15 22 27 45 27 52 0 6 11 24 24 40 13 15 31 46 40 68 9 22 25 49 35 60 10
11 22 31 26 45 4 14 18 39 30 56 13 16 30 46 39 65 8 19 34 63 56 99 22 36 47
81 56 100 9 19 26 48 38 65 20 28 39 61 96 172 14 26 31 55 39 63 8 8 20 30
28 49 8 19 25 49 38 65 12 17 26 42 30 56 4 14 21 40 36 58 16 18 29 41 29 52
0 10 11 32 25 49 14 16 33 50 41 75 16 45 63 96 90 96 7 0 20 -10 28 -22z"/>
<path d="M1097 1360 c-57 -17 -132 -86 -178 -162 l-44 -73 0 -142 0 -141 40
-58 c22 -32 59 -72 83 -88 37 -26 52 -31 100 -30 51 1 64 6 126 48 38 26 80
61 93 77 44 51 93 30 142 -62 20 -37 66 -57 133 -58 28 -1 40 4 48 20 14 26
-1 76 -30 96 -11 8 -27 29 -36 46 -9 18 -27 45 -40 60 -46 55 -40 138 12 172
13 8 24 22 24 30 0 7 16 44 35 80 44 86 52 127 31 160 -12 18 -25 25 -50 25
-86 0 -126 -40 -126 -129 0 -65 -14 -101 -40 -101 -21 0 -32 14 -78 100 -17
33 -50 72 -81 98 -43 35 -58 42 -94 41 -23 0 -55 -5 -70 -9z m120 -192 c22
-35 45 -78 51 -96 6 -18 20 -45 32 -59 36 -46 27 -73 -48 -146 -77 -74 -109
-88 -148 -63 -37 25 -46 59 -48 171 -1 138 8 188 45 225 47 47 70 40 116 -32z"/>
</g>
</svg>
